<?xml version="1.0" encoding="utf-8"?>
<!-- Generator: Adobe Illustrator 17.1.0, SVG Export Plug-In . SVG Version: 6.00 Build 0)  -->
<!DOCTYPE svg PUBLIC "-//W3C//DTD SVG 1.1//EN" "http://www.w3.org/Graphics/SVG/1.1/DTD/svg11.dtd">
<svg version="1.1" id="Calque_1" xmlns="http://www.w3.org/2000/svg" xmlns:xlink="http://www.w3.org/1999/xlink" x="0px" y="0px"
	 viewBox="0 0 50 50" enable-background="new 0 0 50 50" xml:space="preserve">
<g>
	<path fill="#DBDBDB" d="M44.7,42.7c0,2-1.6,3.7-3.7,3.7H5.8c-2,0-3.7-1.6-3.7-3.7V7.4c0-2,1.6-3.7,3.7-3.7h35.3
		c2,0,3.7,1.6,3.7,3.7V42.7z"/>
	<g>
		<path fill="#555555" d="M37.4,7.3c0,3.2-2.8,5.8-2.8,5.8s-2.8-2.6-2.8-5.8c0-3.2,2.8-5.8,2.8-5.8S37.4,4.1,37.4,7.3z"/>
	</g>
	<g>
		<path fill="#555555" d="M31.3,13c0,3.2-2.8,5.8-2.8,5.8s-2.8-2.6-2.8-5.8c0-3.2,2.8-5.8,2.8-5.8S31.3,9.8,31.3,13z"/>
	</g>
	<g>
		<path fill="#555555" d="M25.3,18.6c0,3.2-2.8,5.8-2.8,5.8s-2.8-2.6-2.8-5.8s2.8-5.8,2.8-5.8S25.3,15.4,25.3,18.6z"/>
	</g>
	<g>
		<path fill="#555555" d="M41.2,11c-3.2,0-5.8,2.8-5.8,2.8s2.6,2.8,5.8,2.8s5.8-2.8,5.8-2.8S44.4,11,41.2,11z"/>
	</g>
	<g>
		<path fill="#555555" d="M43.6,3.4c-3,1.2-4.3,4.8-4.3,4.8s3.5,1.6,6.4,0.3c3-1.2,4.3-4.8,4.3-4.8S46.5,2.2,43.6,3.4z"/>
	</g>
	<g>
		<path fill="#555555" d="M35.5,17.1c-3.2,0-5.8,2.8-5.8,2.8s2.6,2.8,5.8,2.8c3.2,0,5.8-2.8,5.8-2.8S38.7,17.1,35.5,17.1z"/>
	</g>
	<g>
		<path fill="#555555" d="M29.8,23.2C26.6,23.2,24,26,24,26s2.6,2.8,5.8,2.8c3.2,0,5.8-2.8,5.8-2.8S33,23.2,29.8,23.2z"/>
	</g>
	<path fill="#555555" d="M26.9,31.4c-0.8-0.8-2.3-1.1-8.8,1.3c-0.5,0.2-1,0.4-1.5,0.6l5.8-5.8c0.4-0.4,0.4-1.1,0-1.5
		c-0.4-0.4-1.1-0.4-1.5,0L0.3,46.8c-0.4,0.4-0.4,1.1,0,1.5c0.2,0.2,0.5,0.3,0.7,0.3c0.3,0,0.5-0.1,0.7-0.3l11-11
		c5.3-2.4,11.5-4.7,12.8-4.3c0.1,0.2,0.2,0.4,0.1,0.7c-0.2,1.7-2.7,4.9-8.8,8.3c-0.5,0.3-0.7,0.9-0.4,1.4c0.2,0.3,0.5,0.5,0.9,0.5
		c0.2,0,0.3,0,0.5-0.1c5.8-3.2,9.4-6.9,9.8-9.9C27.8,32.9,27.5,32,26.9,31.4z"/>
</g>
</svg>
