<?xml version="1.0" encoding="utf-8"?>
<!-- Generator: Adobe Illustrator 17.1.0, SVG Export Plug-In . SVG Version: 6.00 Build 0)  -->
<!DOCTYPE svg PUBLIC "-//W3C//DTD SVG 1.1//EN" "http://www.w3.org/Graphics/SVG/1.1/DTD/svg11.dtd">
<svg version="1.1" id="Calque_1" xmlns="http://www.w3.org/2000/svg" xmlns:xlink="http://www.w3.org/1999/xlink" x="0px" y="0px"
	 viewBox="0 0 50 50" enable-background="new 0 0 50 50" xml:space="preserve">
<g>
	<path fill="#DBDBDB" d="M40.8,33.5c0,1.5-1.2,2.7-2.7,2.7H11.8c-1.5,0-2.7-1.2-2.7-2.7V7.2c0-1.5,1.2-2.7,2.7-2.7h26.3
		c1.5,0,2.7,1.2,2.7,2.7V33.5z"/>
	<g>
		<path fill="#555555" d="M35.4,5.1c0,2.4-2.1,4.3-2.1,4.3s-2.1-1.9-2.1-4.3c0-2.4,2.1-4.3,2.1-4.3S35.4,2.7,35.4,5.1z"/>
	</g>
	<g>
		<path fill="#555555" d="M30.9,9.4c0,2.4-2.1,4.3-2.1,4.3s-2.1-1.9-2.1-4.3C26.7,7,28.8,5,28.8,5S30.9,7,30.9,9.4z"/>
	</g>
	<g>
		<path fill="#555555" d="M26.3,13.6c0,2.4-2.1,4.3-2.1,4.3s-2.1-1.9-2.1-4.3c0-2.4,2.1-4.3,2.1-4.3S26.3,11.2,26.3,13.6z"/>
	</g>
	<g>
		<path fill="#555555" d="M38.2,7.9c-2.4,0-4.3,2.1-4.3,2.1s1.9,2.1,4.3,2.1c2.4,0,4.3-2.1,4.3-2.1S40.6,7.9,38.2,7.9z"/>
	</g>
	<g>
		<path fill="#555555" d="M40,2.2c-2.2,0.9-3.2,3.6-3.2,3.6s2.6,1.2,4.8,0.3c2.2-0.9,3.2-3.6,3.2-3.6S42.2,1.3,40,2.2z"/>
	</g>
	<g>
		<path fill="#555555" d="M34,12.5c-2.4,0-4.3,2.1-4.3,2.1s1.9,2.1,4.3,2.1c2.4,0,4.3-2.1,4.3-2.1S36.4,12.5,34,12.5z"/>
	</g>
	<g>
		<path fill="#555555" d="M29.7,17c-2.4,0-4.3,2.1-4.3,2.1s1.9,2.1,4.3,2.1c2.4,0,4.3-2.1,4.3-2.1S32.1,17,29.7,17z"/>
	</g>
	<path fill="#555555" d="M27.5,23.1c-0.6-0.6-1.7-0.8-6.5,1c-0.4,0.1-0.7,0.3-1.1,0.4l4.3-4.3c0.3-0.3,0.3-0.8,0-1.1
		c-0.3-0.3-0.8-0.3-1.1,0L7.7,34.6c-0.3,0.3-0.3,0.8,0,1.1c0.1,0.1,0.3,0.2,0.5,0.2c0.2,0,0.4-0.1,0.5-0.2l8.2-8.2
		c3.9-1.8,8.6-3.5,9.5-3.2c0.1,0.1,0.1,0.3,0.1,0.5c-0.2,1.3-2,3.6-6.6,6.2c-0.4,0.2-0.5,0.7-0.3,1c0.1,0.2,0.4,0.4,0.7,0.4
		c0.1,0,0.3,0,0.4-0.1c4.3-2.4,7-5.2,7.3-7.4C28.2,24.2,28,23.6,27.5,23.1z"/>
	<path fill="#EA0A24" d="M7.2,1.5c0,0,0.7,0.4,1.9,1.3c0.6,0.4,1.3,0.9,2.2,1.6c0.4,0.3,0.8,0.6,1.3,1c0.5,0.4,0.9,0.7,1.4,1.1
		c0.5,0.4,1,0.8,1.5,1.2c0.5,0.4,1.1,0.9,1.6,1.3c0.5,0.5,1.1,1,1.7,1.4c0.6,0.5,1.1,1,1.7,1.5c2.3,2.1,4.7,4.4,7.1,6.8
		c1.2,1.2,2.3,2.4,3.4,3.6c1.1,1.2,2.2,2.4,3.3,3.5c0.5,0.6,1,1.2,1.5,1.7c0.5,0.6,1,1.1,1.4,1.7c0.5,0.5,0.9,1.1,1.3,1.6
		c0.4,0.5,0.8,1,1.2,1.5c0.8,1,1.5,1.9,2.1,2.7c0.6,0.8,1.1,1.5,1.6,2.1c0.9,1.2,1.3,1.9,1.3,1.9c0,0,0,0.1,0,0.1c0,0-0.1,0-0.1,0
		c0,0-0.7-0.5-1.9-1.3c-0.6-0.4-1.3-1-2.1-1.6C39.9,35.7,39,35,38,34.2c-0.5-0.4-1-0.8-1.5-1.2c-0.5-0.4-1.1-0.9-1.6-1.3
		c-0.5-0.5-1.1-0.9-1.7-1.4c-0.6-0.5-1.1-1-1.7-1.5c-1.2-1-2.3-2.1-3.5-3.3c-1.2-1.1-2.4-2.3-3.6-3.5c-2.4-2.3-4.7-4.7-6.8-7.1
		c-0.5-0.6-1-1.2-1.5-1.7c-0.5-0.6-1-1.1-1.4-1.7c-0.5-0.5-0.9-1.1-1.3-1.6c-0.4-0.5-0.8-1-1.2-1.5c-0.4-0.5-0.8-1-1.1-1.4
		c-0.3-0.5-0.7-0.9-1-1.3C9.4,4.9,8.8,4.2,8.4,3.5C7.6,2.3,7.1,1.6,7.1,1.6C7.1,1.6,7.1,1.5,7.2,1.5C7.2,1.5,7.2,1.5,7.2,1.5z"/>
	<text transform="matrix(1 0 0 1 7.4963 47.7834)" fill="#555555" font-family="'ArialMT'" font-size="6.8259">sans gluten</text>
</g>
</svg>
