<?xml version="1.0" encoding="utf-8"?>
<!-- Generator: Adobe Illustrator 17.1.0, SVG Export Plug-In . SVG Version: 6.00 Build 0)  -->
<!DOCTYPE svg PUBLIC "-//W3C//DTD SVG 1.1//EN" "http://www.w3.org/Graphics/SVG/1.1/DTD/svg11.dtd">
<svg version="1.1" id="Calque_1" xmlns="http://www.w3.org/2000/svg" xmlns:xlink="http://www.w3.org/1999/xlink" x="0px" y="0px"
	 viewBox="0 0 50 50" enable-background="new 0 0 50 50" xml:space="preserve">
<g>
	<path fill="#DBDBDB" d="M40.1,33.3c0,1.5-1.2,2.8-2.8,2.8H10.6c-1.5,0-2.8-1.2-2.8-2.8V6.5C7.8,5,9,3.8,10.6,3.8h26.7
		c1.5,0,2.8,1.2,2.8,2.8V33.3z"/>
	<g>
		<path fill="#555555" d="M34.6,4.4c0,2.4-2.1,4.4-2.1,4.4s-2.1-2-2.1-4.4C30.4,2,32.5,0,32.5,0S34.6,2,34.6,4.4z"/>
	</g>
	<g>
		<path fill="#555555" d="M29.9,8.7c0,2.4-2.1,4.4-2.1,4.4s-2.1-2-2.1-4.4c0-2.4,2.1-4.4,2.1-4.4S29.9,6.3,29.9,8.7z"/>
	</g>
	<g>
		<path fill="#555555" d="M25.3,13c0,2.4-2.1,4.4-2.1,4.4s-2.1-2-2.1-4.4c0-2.4,2.1-4.4,2.1-4.4S25.3,10.6,25.3,13z"/>
	</g>
	<g>
		<path fill="#555555" d="M37.4,7.2C35,7.2,33,9.3,33,9.3s2,2.1,4.4,2.1c2.4,0,4.4-2.1,4.4-2.1S39.8,7.2,37.4,7.2z"/>
	</g>
	<g>
		<path fill="#555555" d="M39.2,1.5C37,2.4,36,5.1,36,5.1s2.6,1.2,4.9,0.3c2.2-0.9,3.3-3.6,3.3-3.6S41.5,0.5,39.2,1.5z"/>
	</g>
	<g>
		<path fill="#555555" d="M33.1,11.9c-2.4,0-4.4,2.1-4.4,2.1s2,2.1,4.4,2.1c2.4,0,4.4-2.1,4.4-2.1S35.5,11.9,33.1,11.9z"/>
	</g>
	<g>
		<path fill="#555555" d="M28.8,16.5c-2.4,0-4.4,2.1-4.4,2.1s2,2.1,4.4,2.1c2.4,0,4.4-2.1,4.4-2.1S31.2,16.5,28.8,16.5z"/>
	</g>
	<path fill="#555555" d="M26.6,22.7c-0.6-0.6-1.8-0.8-6.6,1c-0.4,0.1-0.8,0.3-1.1,0.4l4.4-4.4c0.3-0.3,0.3-0.8,0-1.1
		c-0.3-0.3-0.8-0.3-1.1,0L6.4,34.3c-0.3,0.3-0.3,0.8,0,1.1c0.2,0.2,0.4,0.2,0.6,0.2c0.2,0,0.4-0.1,0.6-0.2l8.3-8.3
		c4-1.9,8.7-3.6,9.7-3.3c0.1,0.1,0.1,0.3,0.1,0.6c-0.2,1.3-2,3.7-6.7,6.3c-0.4,0.2-0.5,0.7-0.3,1.1c0.1,0.3,0.4,0.4,0.7,0.4
		c0.1,0,0.3,0,0.4-0.1c4.4-2.5,7.1-5.3,7.5-7.5C27.2,23.8,27,23.2,26.6,22.7z"/>
	<path fill="#EA0A24" d="M5.9,0.7c0,0,0.7,0.5,2,1.3c0.6,0.4,1.4,1,2.2,1.6c0.4,0.3,0.9,0.6,1.3,1c0.5,0.4,0.9,0.7,1.4,1.1
		c0.5,0.4,1,0.8,1.5,1.3c0.5,0.4,1.1,0.9,1.6,1.4c0.6,0.5,1.1,1,1.7,1.5c0.6,0.5,1.2,1,1.7,1.6c2.4,2.1,4.8,4.5,7.2,6.9
		c1.2,1.2,2.4,2.4,3.5,3.6c1.1,1.2,2.3,2.4,3.3,3.6c0.5,0.6,1,1.2,1.5,1.8c0.5,0.6,1,1.1,1.5,1.7c0.5,0.6,0.9,1.1,1.4,1.6
		c0.4,0.5,0.9,1,1.3,1.5c0.8,1,1.5,1.9,2.1,2.7c0.6,0.8,1.2,1.6,1.6,2.2c0.9,1.2,1.3,1.9,1.3,1.9c0,0,0,0.1,0,0.1c0,0-0.1,0-0.1,0
		c0,0-0.7-0.5-1.9-1.3c-0.6-0.4-1.3-1-2.2-1.6c-0.8-0.6-1.8-1.3-2.7-2.1c-0.5-0.4-1-0.8-1.5-1.3c-0.5-0.4-1.1-0.9-1.6-1.4
		c-0.6-0.5-1.1-1-1.7-1.5c-0.6-0.5-1.2-1-1.8-1.5c-1.2-1.1-2.4-2.2-3.6-3.3c-1.2-1.1-2.4-2.3-3.6-3.5c-2.4-2.4-4.7-4.8-6.9-7.2
		c-0.5-0.6-1-1.2-1.6-1.7c-0.5-0.6-1-1.1-1.5-1.7c-0.5-0.6-0.9-1.1-1.4-1.6c-0.4-0.5-0.9-1-1.3-1.5c-0.4-0.5-0.8-1-1.1-1.4
		C9.4,5.8,9,5.4,8.7,5C8.1,4.2,7.6,3.4,7.1,2.8c-0.9-1.2-1.3-2-1.3-2C5.8,0.8,5.8,0.7,5.9,0.7C5.9,0.7,5.9,0.7,5.9,0.7z"/>
	<text transform="matrix(1 0 0 1 6.2017 47.7479)" fill="#555555" font-family="'ArialMT'" font-size="6.9347">sans gluten</text>
</g>
</svg>
