<?xml version="1.0" encoding="utf-8"?>
<!-- Generator: Adobe Illustrator 17.1.0, SVG Export Plug-In . SVG Version: 6.00 Build 0)  -->
<!DOCTYPE svg PUBLIC "-//W3C//DTD SVG 1.1//EN" "http://www.w3.org/Graphics/SVG/1.1/DTD/svg11.dtd">
<svg version="1.1" id="Calque_1" xmlns="http://www.w3.org/2000/svg" xmlns:xlink="http://www.w3.org/1999/xlink" x="0px" y="0px"
	 viewBox="0 0 50 50" enable-background="new 0 0 50 50" xml:space="preserve">
<g>
	<text transform="matrix(1 0 0 1 6.9334 47.7834)" fill="#555555" font-family="'ArialMT'" font-size="6.8259">sans lactose</text>
</g>
<g>
	<path fill="#DBDBDB" d="M40.7,33.5c0,1.5-1.2,2.7-2.7,2.7H11.7c-1.5,0-2.7-1.2-2.7-2.7V7.2c0-1.5,1.2-2.7,2.7-2.7H38
		c1.5,0,2.7,1.2,2.7,2.7V33.5z"/>
	<g>
		<polygon fill="#FFFFFF" points="15.3,9.2 15.4,35.6 24.5,38.8 24.4,12.4 		"/>
		<path fill="#555555" d="M24.5,39.2c0,0-0.1,0-0.1,0L15.2,36c-0.2-0.1-0.3-0.2-0.3-0.4L14.9,9.2c0-0.1,0.1-0.3,0.2-0.4
			c0.1-0.1,0.3-0.1,0.4-0.1l9.1,3.2c0.2,0.1,0.3,0.2,0.3,0.4l0.1,26.3c0,0.1-0.1,0.3-0.2,0.4C24.7,39.2,24.6,39.2,24.5,39.2z
			 M15.8,35.3l8.3,2.9L24,12.7l-8.3-2.9L15.8,35.3z"/>
	</g>
	<g>
		<polygon fill="#FFFFFF" points="35,10.2 24.4,12.4 24.5,38.8 35.1,36.6 		"/>
		<path fill="#555555" d="M24.5,39.2c-0.1,0-0.2,0-0.3-0.1c-0.1-0.1-0.2-0.2-0.2-0.3L24,12.4c0-0.2,0.1-0.4,0.3-0.4l10.6-2.2
			c0.1,0,0.3,0,0.4,0.1c0.1,0.1,0.2,0.2,0.2,0.3l0.1,26.3c0,0.2-0.1,0.4-0.3,0.4L24.5,39.2C24.6,39.2,24.5,39.2,24.5,39.2z
			 M24.9,12.8l0.1,25.5l9.7-2l-0.1-25.5L24.9,12.8z"/>
	</g>
	<g>
		<polygon fill="#FFFFFF" points="19.9,4.1 30.5,2.3 30.5,0.5 19.9,2.1 		"/>
		<path fill="#555555" d="M19.9,4.5c-0.1,0-0.2,0-0.3-0.1c-0.1-0.1-0.2-0.2-0.2-0.3V2.1c0-0.2,0.2-0.4,0.4-0.4l10.6-1.7
			c0.1,0,0.3,0,0.3,0.1c0.1,0.1,0.2,0.2,0.2,0.3l0,1.8c0,0.2-0.2,0.4-0.4,0.4L19.9,4.5C20,4.5,20,4.5,19.9,4.5z M20.4,2.5v1l9.7-1.6
			l0-0.9L20.4,2.5z"/>
	</g>
	<g>
		<polygon fill="#FFFFFF" points="24.4,12.4 19.9,4.1 19.9,4.1 15.3,9.2 15.3,9.2 19.9,10.8 		"/>
		<path fill="#555555" d="M24.4,12.9c0,0-0.1,0-0.1,0l-9.1-3.2c-0.1,0-0.2-0.2-0.3-0.3c0-0.1,0-0.3,0.1-0.4l4.6-5.2
			c0.1-0.1,0.2-0.2,0.4-0.1c0.1,0,0.3,0.1,0.3,0.2l4.5,8.4c0.1,0.2,0.1,0.4-0.1,0.5C24.7,12.8,24.6,12.9,24.4,12.9z M16.1,9l7.5,2.6
			l-3.7-6.9L16.1,9z"/>
	</g>
	<g>
		<polygon fill="#FFFFFF" points="24.4,12.4 35,10.2 35,10.2 30.5,2.3 19.9,4.1 		"/>
		<path fill="#555555" d="M24.4,12.9c-0.2,0-0.3-0.1-0.4-0.2l-4.5-8.4c-0.1-0.1-0.1-0.3,0-0.4c0.1-0.1,0.2-0.2,0.3-0.2l10.6-1.7
			c0.2,0,0.4,0.1,0.4,0.2l4.5,7.9c0.1,0.1,0.1,0.3,0,0.4c-0.1,0.1-0.2,0.2-0.3,0.2L24.4,12.9C24.5,12.9,24.5,12.9,24.4,12.9z
			 M20.6,4.4l4.1,7.6l9.7-2l-4-7.1L20.6,4.4z"/>
	</g>
	<path fill="#EA0A24" d="M8.4,1.5c0,0,0.7,0.4,1.9,1.3c0.6,0.4,1.3,0.9,2.2,1.6c0.4,0.3,0.8,0.6,1.3,1c0.4,0.4,0.9,0.7,1.4,1.1
		c0.5,0.4,1,0.8,1.5,1.2c0.5,0.4,1.1,0.9,1.6,1.3c0.5,0.5,1.1,0.9,1.7,1.4c0.6,0.5,1.1,1,1.7,1.5c2.3,2.1,4.7,4.4,7.1,6.8
		c1.2,1.2,2.3,2.4,3.4,3.6c1.1,1.2,2.2,2.4,3.3,3.5c0.5,0.6,1,1.2,1.5,1.7c0.5,0.6,1,1.1,1.4,1.7c0.5,0.5,0.9,1.1,1.3,1.6
		c0.4,0.5,0.8,1,1.2,1.5c0.8,1,1.5,1.9,2.1,2.7c0.6,0.8,1.1,1.5,1.6,2.1c0.9,1.2,1.3,1.9,1.3,1.9c0,0,0,0.1,0,0.1c0,0-0.1,0-0.1,0
		c0,0-0.7-0.5-1.9-1.3c-0.6-0.4-1.3-1-2.1-1.6c-0.8-0.6-1.7-1.3-2.7-2.1c-0.5-0.4-1-0.8-1.5-1.2c-0.5-0.4-1.1-0.9-1.6-1.3
		c-0.5-0.5-1.1-0.9-1.7-1.4c-0.6-0.5-1.1-1-1.7-1.5c-1.2-1-2.3-2.1-3.5-3.3c-1.2-1.1-2.4-2.3-3.6-3.4c-2.4-2.3-4.7-4.7-6.8-7.1
		c-0.5-0.6-1-1.2-1.5-1.7c-0.5-0.6-1-1.1-1.4-1.7c-0.5-0.5-0.9-1.1-1.3-1.6c-0.4-0.5-0.8-1-1.2-1.5c-0.4-0.5-0.8-1-1.1-1.4
		c-0.3-0.5-0.7-0.9-1-1.3C10.5,4.9,10,4.2,9.5,3.5C8.7,2.3,8.3,1.6,8.3,1.6C8.2,1.6,8.2,1.5,8.4,1.5C8.3,1.5,8.3,1.5,8.4,1.5z"/>
</g>
</svg>
