<?xml version="1.0" encoding="utf-8"?>
<!-- Generator: Adobe Illustrator 17.1.0, SVG Export Plug-In . SVG Version: 6.00 Build 0)  -->
<!DOCTYPE svg PUBLIC "-//W3C//DTD SVG 1.1//EN" "http://www.w3.org/Graphics/SVG/1.1/DTD/svg11.dtd">
<svg version="1.1" id="Calque_1" xmlns="http://www.w3.org/2000/svg" xmlns:xlink="http://www.w3.org/1999/xlink" x="0px" y="0px"
	 viewBox="0 0 50 50" enable-background="new 0 0 50 50" xml:space="preserve">
<g>
	<text transform="matrix(1 0 0 1 11.6356 47.7834)" fill="#555555" font-family="'ArialMT'" font-size="6.8259">sans œuf</text>
</g>
<g>
	<path fill="#DBDBDB" d="M41.7,33.5c0,1.5-1.2,2.7-2.7,2.7H12.7c-1.5,0-2.7-1.2-2.7-2.7V7.2c0-1.5,1.2-2.7,2.7-2.7H39
		c1.5,0,2.7,1.2,2.7,2.7V33.5z"/>
	<g>
		<path fill="#FFFFFF" d="M36.7,21c0,8.7-5.1,14.9-10.8,14.9C20.1,35.9,15,29.6,15,21c0-8.7,6.3-16.3,10.8-16.3
			C29.9,4.6,36.7,12.3,36.7,21z"/>
		<path fill="#555555" d="M25.9,36.3c-2.9,0-5.8-1.6-7.9-4.4c-2.2-2.9-3.4-6.8-3.4-11c0-8.6,6.3-16.8,11.3-16.8
			c4.2,0,11.3,7.8,11.3,16.8c0,4.2-1.2,8.1-3.4,11C31.7,34.7,28.8,36.3,25.9,36.3z M25.9,5.1c-2.1,0-4.7,1.8-6.7,4.7
			c-2.3,3.2-3.7,7.3-3.7,11.2c0,8,4.7,14.5,10.4,14.5c5.7,0,10.4-6.5,10.4-14.5c0-3.8-1.4-7.9-3.8-11.2C30.3,6.9,27.8,5.1,25.9,5.1z
			"/>
	</g>
	<ellipse fill="#555555" cx="25.9" cy="25" rx="6.9" ry="6.9"/>
	<path fill="#EA0A24" d="M7.1,1.5c0,0,0.7,0.4,1.9,1.3c0.6,0.4,1.3,0.9,2.2,1.6c0.4,0.3,0.8,0.6,1.3,1c0.5,0.4,0.9,0.7,1.4,1.1
		c0.5,0.4,1,0.8,1.5,1.2C15.9,8.1,16.5,8.6,17,9c0.5,0.5,1.1,0.9,1.7,1.4c0.6,0.5,1.1,1,1.7,1.5c2.3,2.1,4.7,4.4,7.1,6.8
		c1.2,1.2,2.3,2.4,3.4,3.6c1.1,1.2,2.2,2.4,3.3,3.5c0.5,0.6,1,1.2,1.5,1.7c0.5,0.6,1,1.1,1.4,1.7c0.5,0.5,0.9,1.1,1.3,1.6
		c0.4,0.5,0.8,1,1.2,1.5c0.8,1,1.5,1.9,2.1,2.7c0.6,0.8,1.1,1.5,1.6,2.1c0.9,1.2,1.3,1.9,1.3,1.9c0,0,0,0.1,0,0.1c0,0-0.1,0-0.1,0
		c0,0-0.7-0.5-1.9-1.3c-0.6-0.4-1.3-1-2.1-1.6c-0.8-0.6-1.7-1.3-2.7-2.1c-0.5-0.4-1-0.8-1.5-1.2c-0.5-0.4-1.1-0.9-1.6-1.3
		c-0.5-0.5-1.1-0.9-1.7-1.4c-0.6-0.5-1.1-1-1.7-1.5c-1.2-1-2.3-2.1-3.5-3.3c-1.2-1.1-2.4-2.3-3.6-3.4c-2.4-2.3-4.7-4.7-6.8-7.1
		c-0.5-0.6-1-1.2-1.5-1.7c-0.5-0.6-1-1.1-1.4-1.7c-0.5-0.5-0.9-1.1-1.3-1.6c-0.4-0.5-0.8-1-1.2-1.5c-0.4-0.5-0.8-1-1.1-1.4
		c-0.3-0.5-0.7-0.9-1-1.3C9.2,4.9,8.7,4.2,8.3,3.5C7.4,2.3,7,1.6,7,1.6C7,1.6,7,1.5,7.1,1.5C7,1.5,7.1,1.5,7.1,1.5z"/>
</g>
</svg>
