<?xml version="1.0" encoding="utf-8"?>
<!-- Generator: Adobe Illustrator 17.1.0, SVG Export Plug-In . SVG Version: 6.00 Build 0)  -->
<!DOCTYPE svg PUBLIC "-//W3C//DTD SVG 1.1//EN" "http://www.w3.org/Graphics/SVG/1.1/DTD/svg11.dtd">
<svg version="1.1" id="Calque_1" xmlns="http://www.w3.org/2000/svg" xmlns:xlink="http://www.w3.org/1999/xlink" x="0px" y="0px"
	 viewBox="0 0 50 50" enable-background="new 0 0 50 50" xml:space="preserve">
<path fill="#DBDBDB" d="M41.5,33.5c0,1.5-1.2,2.7-2.7,2.7H12.4c-1.5,0-2.7-1.2-2.7-2.7V7.2c0-1.5,1.2-2.7,2.7-2.7h26.3
	c1.5,0,2.7,1.2,2.7,2.7V33.5z"/>
<g>
	<text transform="matrix(1 0 0 1 11.1599 47.7834)" fill="#555555" font-family="'ArialMT'" font-size="6.8259">sans soja</text>
</g>
<g>
	<path fill="#FFFFFF" d="M6.7,36.4c0,0,3.6-4.8,8.4-9.2c3.2-2.9,6.7-4.6,11.1-8.4c11-9.4,16.4-18.4,16.4-18.4s3.7,4.7-12,21.3
		c-2.4,2.6-7.8,8-14.4,11.5C11,36.1,6.7,36.4,6.7,36.4z"/>
	<path fill="#555555" d="M6.7,36.9c-0.2,0-0.3-0.1-0.4-0.2c-0.1-0.1-0.1-0.3,0-0.5c0,0,3.7-4.9,8.5-9.3c1.6-1.5,3.3-2.6,5.1-3.9
		c1.9-1.3,3.8-2.6,6-4.5C36.8,9.3,42.3,0.3,42.3,0.2C42.4,0.1,42.5,0,42.7,0c0.1,0,0.3,0.1,0.4,0.2c0.2,0.2,3.8,5.2-12,21.9
		c-4.9,5.2-9.8,9.1-14.5,11.6C11.1,36.5,6.9,36.8,6.7,36.9C6.8,36.9,6.7,36.9,6.7,36.9z M42.6,1.4c-1.6,2.4-6.9,10-16,17.7
		c-2.3,1.9-4.3,3.3-6.1,4.6c-1.8,1.2-3.4,2.4-5,3.8c-3.6,3.2-6.5,6.7-7.7,8.3c1.6-0.3,4.7-1,8.4-3c4.7-2.5,9.5-6.3,14.3-11.4
		C42.3,8.8,42.9,3.2,42.6,1.4z"/>
</g>
<ellipse transform="matrix(0.7071 -0.7071 0.7071 0.7071 -5.6209 23.7371)" fill="#555555" cx="25.8" cy="18.7" rx="4.8" ry="4.4"/>
<ellipse transform="matrix(0.7071 -0.7071 0.7071 0.7071 4.728 27.4216)" fill="#555555" cx="35.5" cy="8" rx="4.8" ry="4.4"/>
<ellipse transform="matrix(0.7071 -0.7071 0.7071 0.7071 -15.9318 18.325)" fill="#555555" cx="14.2" cy="28.4" rx="4.6" ry="4.3"/>
<g>
	<path fill="#FFFFFF" d="M42.7,0.4c0,0-5.4,9-16.4,18.4c-4.4,3.8-7.9,5.5-11.1,8.4c-4.8,4.4-8.4,9.2-8.4,9.2C9,32.5,6.9,29.7,9.4,26
		c2.6-3.7,4.4-1.9,7.2-5.3c2.9-3.4,1.4-3.8,4.6-7.1c3.2-3.1,3.9-1.5,7.3-4.2c1.8-1.4,0-3.8,3.7-6.4C35.9,0.5,37.4,3.3,42.7,0.4z"/>
	<path fill="#555555" d="M6.7,36.9c-0.1,0-0.2,0-0.2-0.1c-0.2-0.1-0.3-0.4-0.1-0.6c1-1.8,1.1-3.3,1.2-4.9c0.1-1.7,0.1-3.5,1.5-5.6
		c1.4-2,2.7-2.5,3.8-3c1.1-0.4,2.1-0.8,3.4-2.4c1.3-1.6,1.7-2.5,2.1-3.3c0.4-1,0.8-2,2.5-3.8c1.8-1.7,2.8-2.1,3.9-2.4
		c0.9-0.3,1.9-0.6,3.4-1.8c0.6-0.5,0.7-1.1,0.9-1.9c0.2-1.3,0.5-2.9,2.8-4.5c1.6-1,2.8-1.2,4.2-1.2c0.2,0,0.5,0,0.7,0
		c1.5,0,3.2,0.1,5.8-1.3C42.7,0,42.9,0,43,0.1c0.1,0.1,0.2,0.4,0.1,0.5C43,0.7,37.5,9.8,26.6,19.1c-2.3,1.9-4.3,3.3-6.1,4.6
		c-1.8,1.2-3.4,2.4-5,3.8c-4.7,4.3-8.4,9.1-8.4,9.1C7,36.8,6.9,36.9,6.7,36.9z M36,2.2c-1.2,0-2.3,0.2-3.7,1.1
		c-2,1.4-2.3,2.8-2.5,3.9c-0.2,0.9-0.3,1.7-1.2,2.4c-1.7,1.3-2.7,1.7-3.7,2c-1,0.3-1.9,0.6-3.6,2.2c-1.6,1.6-1.9,2.5-2.3,3.5
		c-0.4,0.9-0.8,1.9-2.2,3.6c-1.4,1.7-2.6,2.2-3.7,2.6c-1.1,0.4-2.2,0.8-3.4,2.7c-1.2,1.8-1.3,3.4-1.4,5.1c0,0.9-0.1,1.7-0.3,2.7
		c1.5-1.8,4-4.6,6.8-7.1c1.6-1.5,3.3-2.6,5.1-3.9c1.9-1.3,3.8-2.6,6-4.5c8.4-7.2,13.5-14.2,15.4-17c-2,0.8-3.5,0.8-4.8,0.8
		C36.5,2.2,36.2,2.2,36,2.2z"/>
</g>
<path fill="#EA0A24" d="M5.7,1.5c0,0,0.7,0.4,1.9,1.3c0.6,0.4,1.3,0.9,2.2,1.6c0.4,0.3,0.8,0.6,1.3,1c0.5,0.4,0.9,0.7,1.4,1.1
	c0.5,0.4,1,0.8,1.5,1.2c0.5,0.4,1.1,0.9,1.6,1.3c0.5,0.5,1.1,0.9,1.7,1.4c0.6,0.5,1.1,1,1.7,1.5c2.3,2.1,4.7,4.4,7.1,6.8
	c1.2,1.2,2.3,2.4,3.5,3.6c1.1,1.2,2.2,2.4,3.3,3.5c0.5,0.6,1,1.2,1.5,1.7c0.5,0.6,1,1.1,1.4,1.7c0.5,0.5,0.9,1.1,1.3,1.6
	c0.4,0.5,0.8,1,1.2,1.5c0.8,1,1.5,1.9,2.1,2.7c0.6,0.8,1.1,1.5,1.6,2.1c0.9,1.2,1.3,1.9,1.3,1.9c0,0,0,0.1,0,0.1c0,0-0.1,0-0.1,0
	c0,0-0.7-0.5-1.9-1.3c-0.6-0.4-1.3-1-2.1-1.6c-0.8-0.6-1.7-1.3-2.7-2.1c-0.5-0.4-1-0.8-1.5-1.2c-0.5-0.4-1.1-0.9-1.6-1.3
	c-0.5-0.5-1.1-0.9-1.7-1.4c-0.6-0.5-1.1-1-1.7-1.5c-1.2-1-2.3-2.1-3.5-3.3c-1.2-1.1-2.4-2.3-3.6-3.5c-2.4-2.3-4.7-4.7-6.8-7.1
	c-0.5-0.6-1-1.2-1.5-1.7c-0.5-0.6-1-1.1-1.4-1.7c-0.5-0.5-0.9-1.1-1.3-1.6c-0.4-0.5-0.8-1-1.2-1.5c-0.4-0.5-0.8-1-1.1-1.4
	C9,6.6,8.7,6.1,8.4,5.7C7.8,4.9,7.3,4.2,6.9,3.6C6,2.4,5.6,1.6,5.6,1.6C5.5,1.6,5.6,1.5,5.7,1.5C5.6,1.5,5.6,1.5,5.7,1.5z"/>
</svg>
