<?xml version="1.0" encoding="utf-8"?>
<!-- Generator: Adobe Illustrator 17.1.0, SVG Export Plug-In . SVG Version: 6.00 Build 0)  -->
<!DOCTYPE svg PUBLIC "-//W3C//DTD SVG 1.1//EN" "http://www.w3.org/Graphics/SVG/1.1/DTD/svg11.dtd">
<svg version="1.1" id="Calque_1" xmlns="http://www.w3.org/2000/svg" xmlns:xlink="http://www.w3.org/1999/xlink" x="0px" y="0px"
	 viewBox="0 0 50 50" enable-background="new 0 0 50 50" xml:space="preserve">
<g>
	<path fill="#DBDBDB" d="M43.4,42.7c0,1.9-1.6,3.5-3.5,3.5H6.4c-1.9,0-3.5-1.6-3.5-3.5V9.2c0-1.9,1.6-3.5,3.5-3.5h33.5
		c1.9,0,3.5,1.6,3.5,3.5V42.7z"/>
	<g>
		<path fill="#555555" d="M36.5,6.5c0,3-2.6,5.5-2.6,5.5s-2.6-2.5-2.6-5.5c0-3,2.6-5.5,2.6-5.5S36.5,3.5,36.5,6.5z"/>
	</g>
	<g>
		<path fill="#555555" d="M30.7,11.9c0,3-2.6,5.5-2.6,5.5s-2.6-2.5-2.6-5.5c0-3,2.6-5.5,2.6-5.5S30.7,8.9,30.7,11.9z"/>
	</g>
	<g>
		<path fill="#555555" d="M24.9,17.3c0,3-2.6,5.5-2.6,5.5s-2.6-2.5-2.6-5.5c0-3,2.6-5.5,2.6-5.5S24.9,14.3,24.9,17.3z"/>
	</g>
	<g>
		<path fill="#555555" d="M40,10.1c-3,0-5.5,2.6-5.5,2.6s2.5,2.6,5.5,2.6s5.5-2.6,5.5-2.6S43.1,10.1,40,10.1z"/>
	</g>
	<g>
		<path fill="#555555" d="M42.3,2.9c-2.8,1.2-4.1,4.5-4.1,4.5s3.3,1.5,6.1,0.3c2.8-1.2,4.1-4.5,4.1-4.5S45.1,1.7,42.3,2.9z"/>
	</g>
	<g>
		<path fill="#555555" d="M34.6,15.9c-3,0-5.5,2.6-5.5,2.6s2.5,2.6,5.5,2.6c3,0,5.5-2.6,5.5-2.6S37.7,15.9,34.6,15.9z"/>
	</g>
	<g>
		<path fill="#555555" d="M29.2,21.7c-3,0-5.5,2.6-5.5,2.6s2.5,2.6,5.5,2.6c3,0,5.5-2.6,5.5-2.6S32.3,21.7,29.2,21.7z"/>
	</g>
	<path fill="#555555" d="M26.4,29.5c-0.7-0.7-2.2-1.1-8.3,1.3c-0.5,0.2-0.9,0.4-1.4,0.6l5.5-5.5c0.4-0.4,0.4-1,0-1.4
		c-0.4-0.4-1-0.4-1.4,0L1.2,44c-0.4,0.4-0.4,1,0,1.4c0.2,0.2,0.4,0.3,0.7,0.3c0.2,0,0.5-0.1,0.7-0.3L13,35c5-2.3,10.9-4.5,12.1-4.1
		c0.1,0.2,0.2,0.4,0.1,0.7c-0.2,1.6-2.5,4.6-8.4,7.9c-0.5,0.3-0.6,0.9-0.4,1.3c0.2,0.3,0.5,0.5,0.9,0.5c0.2,0,0.3,0,0.5-0.1
		c5.5-3.1,9-6.6,9.3-9.4C27.3,30.9,27,30.1,26.4,29.5z"/>
	<path fill="#EA0A24" d="M0.6,1.9c0,0,0.9,0.6,2.5,1.6c0.8,0.5,1.7,1.2,2.7,2C6.3,6,6.9,6.4,7.5,6.8C8,7.3,8.7,7.7,9.3,8.2
		c0.6,0.5,1.3,1,1.9,1.6c0.7,0.6,1.3,1.1,2,1.7c0.7,0.6,1.4,1.2,2.1,1.8c0.7,0.6,1.4,1.3,2.2,1.9c2.9,2.7,6,5.6,9,8.6
		c1.5,1.5,3,3,4.4,4.5c1.4,1.5,2.8,3,4.1,4.5c0.7,0.7,1.3,1.5,1.9,2.2c0.6,0.7,1.2,1.4,1.8,2.1c0.6,0.7,1.2,1.4,1.7,2
		c0.5,0.7,1.1,1.3,1.6,1.9c1,1.2,1.9,2.4,2.7,3.4c0.8,1,1.5,2,2,2.7c1.1,1.5,1.7,2.4,1.7,2.4c0,0,0,0.1,0,0.1c0,0-0.1,0-0.1,0
		c0,0-0.9-0.6-2.4-1.7c-0.8-0.5-1.7-1.2-2.7-2c-1-0.8-2.2-1.7-3.4-2.7c-0.6-0.5-1.3-1-1.9-1.6c-0.7-0.5-1.3-1.1-2-1.7
		c-0.7-0.6-1.4-1.2-2.1-1.8c-0.7-0.6-1.5-1.3-2.2-1.9c-1.5-1.3-3-2.7-4.5-4.1c-1.5-1.4-3-2.9-4.5-4.4c-3-3-5.9-6-8.6-9
		c-0.7-0.7-1.3-1.5-1.9-2.2c-0.6-0.7-1.2-1.4-1.8-2.1c-0.6-0.7-1.2-1.4-1.7-2c-0.5-0.7-1.1-1.3-1.6-1.9c-0.5-0.6-1-1.2-1.4-1.8
		C4.9,8.4,4.5,7.8,4.1,7.3c-0.8-1-1.4-2-2-2.7C1,3,0.5,2.1,0.5,2.1c0,0,0-0.1,0-0.1C0.5,1.9,0.6,1.9,0.6,1.9z"/>
</g>
</svg>
