<?xml version="1.0" encoding="utf-8"?>
<!-- Generator: Adobe Illustrator 17.1.0, SVG Export Plug-In . SVG Version: 6.00 Build 0)  -->
<!DOCTYPE svg PUBLIC "-//W3C//DTD SVG 1.1//EN" "http://www.w3.org/Graphics/SVG/1.1/DTD/svg11.dtd">
<svg version="1.1" id="Calque_1" xmlns="http://www.w3.org/2000/svg" xmlns:xlink="http://www.w3.org/1999/xlink" x="0px" y="0px"
	 viewBox="0 0 50 50" enable-background="new 0 0 50 50" xml:space="preserve">
<g>
	<path fill="#DBDBDB" d="M42.3,42.7c0,1.9-1.6,3.5-3.5,3.5H5.3c-1.9,0-3.5-1.6-3.5-3.5V9.1c0-1.9,1.6-3.5,3.5-3.5h33.6
		c1.9,0,3.5,1.6,3.5,3.5V42.7z"/>
	<g>
		<polygon fill="#FFFFFF" points="9.9,11.7 10,45.3 21.6,49.4 21.6,15.8 		"/>
		<path fill="#555555" d="M21.6,49.9c-0.1,0-0.1,0-0.2,0L9.8,45.8c-0.2-0.1-0.4-0.3-0.4-0.5L9.4,11.7c0-0.2,0.1-0.3,0.2-0.5
			c0.1-0.1,0.3-0.1,0.5-0.1l11.6,4.1c0.2,0.1,0.4,0.3,0.4,0.5l0.1,33.6c0,0.2-0.1,0.3-0.2,0.5C21.9,49.9,21.8,49.9,21.6,49.9z
			 M10.6,44.9l10.5,3.7L21,16.2l-10.5-3.7L10.6,44.9z"/>
	</g>
	<g>
		<polygon fill="#FFFFFF" points="35,13 21.6,15.8 21.6,49.4 35.1,46.6 		"/>
		<path fill="#555555" d="M21.6,49.9c-0.1,0-0.2,0-0.3-0.1c-0.1-0.1-0.2-0.3-0.2-0.4L21,15.8c0-0.3,0.2-0.5,0.4-0.5l13.5-2.8
			c0.2,0,0.3,0,0.5,0.1c0.1,0.1,0.2,0.3,0.2,0.4l0.1,33.6c0,0.3-0.2,0.5-0.4,0.5l-13.5,2.8C21.7,49.9,21.7,49.9,21.6,49.9z
			 M22.1,16.2l0.1,32.5l12.4-2.6l-0.1-32.5L22.1,16.2z"/>
	</g>
	<g>
		<polygon fill="#FFFFFF" points="15.8,5.1 29.3,2.9 29.3,0.6 15.8,2.7 		"/>
		<path fill="#555555" d="M15.8,5.6c-0.1,0-0.3,0-0.4-0.1c-0.1-0.1-0.2-0.3-0.2-0.4V2.7c0-0.3,0.2-0.5,0.5-0.5L29.2,0
			c0.2,0,0.3,0,0.4,0.1c0.1,0.1,0.2,0.3,0.2,0.4l0,2.3c0,0.3-0.2,0.5-0.5,0.5L15.8,5.6C15.9,5.6,15.9,5.6,15.8,5.6z M16.4,3.1v1.3
			l12.4-2l0-1.2L16.4,3.1z"/>
	</g>
	<g>
		<polygon fill="#FFFFFF" points="21.6,15.8 15.8,5.1 15.8,5.1 9.9,11.7 9.9,11.7 15.7,13.8 		"/>
		<path fill="#555555" d="M21.6,16.3c-0.1,0-0.1,0-0.2,0L9.7,12.2c-0.2-0.1-0.3-0.2-0.4-0.4c0-0.2,0-0.4,0.1-0.5l5.9-6.6
			c0.1-0.1,0.3-0.2,0.5-0.2c0.2,0,0.3,0.1,0.4,0.3L22,15.5c0.1,0.2,0.1,0.4-0.1,0.6C21.9,16.3,21.7,16.3,21.6,16.3z M10.9,11.5
			l9.5,3.3l-4.7-8.7L10.9,11.5z"/>
	</g>
	<g>
		<polygon fill="#FFFFFF" points="21.6,15.8 35,13 35,13 29.3,2.9 15.8,5.1 		"/>
		<path fill="#555555" d="M21.6,16.3c-0.2,0-0.4-0.1-0.5-0.3L15.3,5.4c-0.1-0.2-0.1-0.3,0-0.5c0.1-0.2,0.2-0.3,0.4-0.3l13.5-2.2
			c0.2,0,0.5,0.1,0.6,0.3l5.7,10.1c0.1,0.2,0.1,0.4,0,0.5c-0.1,0.2-0.2,0.3-0.4,0.3l-13.5,2.8C21.6,16.3,21.6,16.3,21.6,16.3z
			 M16.7,5.5l5.2,9.6l12.3-2.6L29,3.5L16.7,5.5z"/>
	</g>
	<path fill="#EA0A24" d="M1.1,1.8c0,0,0.9,0.6,2.5,1.6c0.8,0.5,1.7,1.2,2.7,2c0.5,0.4,1.1,0.8,1.7,1.3c0.6,0.5,1.2,0.9,1.8,1.4
		c0.6,0.5,1.3,1,1.9,1.6c0.7,0.6,1.3,1.1,2,1.7c0.7,0.6,1.4,1.2,2.1,1.8c0.7,0.6,1.4,1.3,2.2,2c3,2.7,6,5.6,9,8.6
		c1.5,1.5,3,3,4.4,4.6c1.4,1.5,2.8,3,4.2,4.5c0.7,0.7,1.3,1.5,1.9,2.2c0.6,0.7,1.2,1.4,1.8,2.1c0.6,0.7,1.2,1.4,1.7,2
		c0.5,0.7,1.1,1.3,1.6,1.9c1,1.2,1.9,2.4,2.7,3.4c0.8,1,1.5,2,2,2.7c1.1,1.5,1.7,2.4,1.7,2.4c0,0,0,0.1,0,0.1c0,0-0.1,0-0.1,0
		c0,0-0.9-0.6-2.4-1.7c-0.8-0.5-1.7-1.2-2.7-2c-1-0.8-2.2-1.7-3.4-2.7c-0.6-0.5-1.3-1-1.9-1.6c-0.7-0.5-1.3-1.1-2-1.7
		c-0.7-0.6-1.4-1.2-2.1-1.8c-0.7-0.6-1.5-1.3-2.2-1.9c-1.5-1.3-3-2.7-4.5-4.2c-1.5-1.4-3-2.9-4.6-4.4c-3-3-6-6-8.6-9
		c-0.7-0.7-1.3-1.5-2-2.2c-0.6-0.7-1.2-1.4-1.8-2.1c-0.6-0.7-1.2-1.4-1.7-2c-0.5-0.7-1.1-1.3-1.6-1.9c-0.5-0.6-1-1.2-1.4-1.8
		C5.4,8.3,5,7.7,4.6,7.2c-0.8-1-1.4-2-2-2.7C1.5,2.9,0.9,2,0.9,2c0,0,0-0.1,0-0.1C1,1.8,1,1.8,1.1,1.8z"/>
</g>
</svg>
