<?xml version="1.0" encoding="utf-8"?>
<!-- Generator: Adobe Illustrator 17.1.0, SVG Export Plug-In . SVG Version: 6.00 Build 0)  -->
<!DOCTYPE svg PUBLIC "-//W3C//DTD SVG 1.1//EN" "http://www.w3.org/Graphics/SVG/1.1/DTD/svg11.dtd">
<svg version="1.1" id="Calque_1" xmlns="http://www.w3.org/2000/svg" xmlns:xlink="http://www.w3.org/1999/xlink" x="0px" y="0px"
	 viewBox="0 0 50 50" enable-background="new 0 0 50 50" xml:space="preserve">
<g>
	<path fill="#DBDBDB" d="M45.2,42.7c0,1.9-1.6,3.5-3.5,3.5H8.3c-1.9,0-3.5-1.6-3.5-3.5V9.2c0-1.9,1.6-3.5,3.5-3.5h33.5
		c1.9,0,3.5,1.6,3.5,3.5V42.7z"/>
	<g>
		<path fill="#FFFFFF" d="M38.8,26.8c0,11-6.5,19-13.8,19c-7.3,0-13.8-8-13.8-19c0-11,8.1-20.8,13.8-20.8
			C30.2,5.9,38.8,15.7,38.8,26.8z"/>
		<path fill="#555555" d="M25,46.3c-3.7,0-7.4-2-10.1-5.6c-2.8-3.7-4.3-8.6-4.3-13.9c0-11,8.1-21.4,14.3-21.4
			c5.4,0,14.3,10,14.3,21.4c0,5.3-1.5,10.3-4.3,13.9C32.4,44.2,28.7,46.3,25,46.3z M25,6.5c-2.6,0-5.9,2.3-8.6,6
			c-3,4.1-4.6,9.3-4.6,14.2c0,10.2,5.9,18.4,13.2,18.4c7.3,0,13.2-8.3,13.2-18.4c0-4.8-1.8-10-4.8-14.2C30.7,8.9,27.4,6.5,25,6.5z"
			/>
	</g>
	<ellipse fill="#555555" cx="25" cy="31.8" rx="8.8" ry="8.7"/>
	<path fill="#EA0A24" d="M1.1,1.9c0,0,0.9,0.6,2.5,1.6c0.8,0.5,1.7,1.2,2.7,2C6.9,6,7.4,6.4,8,6.8c0.6,0.5,1.2,0.9,1.8,1.4
		c0.6,0.5,1.3,1,1.9,1.6c0.7,0.6,1.3,1.1,2,1.7c0.7,0.6,1.4,1.2,2.1,1.8c0.7,0.6,1.4,1.3,2.2,1.9c2.9,2.7,6,5.6,9,8.6
		c1.5,1.5,3,3,4.4,4.5c1.4,1.5,2.8,3,4.1,4.5c0.7,0.7,1.3,1.5,1.9,2.2c0.6,0.7,1.2,1.4,1.8,2.1c0.6,0.7,1.2,1.4,1.7,2
		c0.5,0.7,1.1,1.3,1.6,1.9c1,1.2,1.9,2.4,2.7,3.4c0.8,1,1.5,2,2,2.7c1.1,1.5,1.7,2.4,1.7,2.4c0,0,0,0.1,0,0.1c0,0-0.1,0-0.1,0
		c0,0-0.9-0.6-2.4-1.7c-0.8-0.5-1.7-1.2-2.7-2c-1-0.8-2.2-1.7-3.4-2.7c-0.6-0.5-1.3-1-1.9-1.6c-0.7-0.5-1.3-1.1-2-1.7
		c-0.7-0.6-1.4-1.2-2.1-1.8c-0.7-0.6-1.5-1.3-2.2-1.9c-1.5-1.3-3-2.7-4.5-4.1c-1.5-1.4-3-2.9-4.5-4.4c-3-3-5.9-6-8.6-9
		c-0.7-0.7-1.3-1.5-1.9-2.2c-0.6-0.7-1.2-1.4-1.8-2.1c-0.6-0.7-1.2-1.4-1.7-2c-0.5-0.7-1.1-1.3-1.6-1.9c-0.5-0.6-1-1.2-1.4-1.8
		C5.4,8.4,5,7.8,4.6,7.3c-0.8-1-1.4-2-2-2.7C1.5,3,1,2.1,1,2.1c0,0,0-0.1,0-0.1C1,1.9,1.1,1.9,1.1,1.9z"/>
</g>
</svg>
