<?xml version="1.0" encoding="utf-8"?>
<!-- Generator: Adobe Illustrator 17.1.0, SVG Export Plug-In . SVG Version: 6.00 Build 0)  -->
<!DOCTYPE svg PUBLIC "-//W3C//DTD SVG 1.1//EN" "http://www.w3.org/Graphics/SVG/1.1/DTD/svg11.dtd">
<svg version="1.1" id="Calque_1" xmlns="http://www.w3.org/2000/svg" xmlns:xlink="http://www.w3.org/1999/xlink" x="0px" y="0px"
	 viewBox="0 0 50 50" enable-background="new 0 0 50 50" xml:space="preserve">
<g>
	<path fill="#DBDBDB" d="M46.6,42.7c0,1.9-1.6,3.5-3.5,3.5H9.6c-1.9,0-3.5-1.6-3.5-3.5V9.2c0-1.9,1.6-3.5,3.5-3.5h33.5
		c1.9,0,3.5,1.6,3.5,3.5V42.7z"/>
	<g>
		<path fill="#FFFFFF" d="M2.4,46.4c0,0,4.6-6.2,10.8-11.7c4.1-3.7,8.5-5.9,14.2-10.7C41.2,12,48.1,0.6,48.1,0.6s4.7,5.9-15.2,27.1
			C29.8,31,23,37.9,14.5,42.4C7.7,45.9,2.4,46.4,2.4,46.4z"/>
		<path fill="#555555" d="M2.4,46.9c-0.2,0-0.4-0.1-0.5-0.3c-0.1-0.2-0.1-0.4,0-0.6c0-0.1,4.7-6.3,10.8-11.8c2.1-1.9,4.2-3.4,6.5-5
			c2.4-1.6,4.9-3.4,7.7-5.8C40.6,11.8,47.6,0.4,47.7,0.3C47.8,0.1,47.9,0,48.1,0c0.2,0,0.4,0.1,0.5,0.2c0.2,0.3,4.8,6.6-15.3,27.8
			c-6.2,6.6-12.5,11.6-18.5,14.8C8,46.4,2.6,46.9,2.4,46.9C2.4,46.9,2.4,46.9,2.4,46.9z M48,1.8c-2,3-8.8,12.7-20.3,22.6
			c-2.9,2.5-5.5,4.2-7.8,5.8c-2.3,1.6-4.4,3-6.4,4.9c-4.5,4.1-8.3,8.6-9.9,10.6c2-0.3,6-1.3,10.6-3.8c5.9-3.1,12.1-8,18.2-14.6
			C47.6,11.3,48.4,4.1,48,1.8z"/>
	</g>
	
		<ellipse transform="matrix(0.7071 -0.7071 0.7071 0.7071 -8.9792 25.8195)" fill="#555555" cx="26.7" cy="23.7" rx="6.1" ry="5.7"/>
	<ellipse transform="matrix(0.7071 -0.7071 0.7071 0.7071 4.1964 30.5104)" fill="#555555" cx="38.9" cy="10.2" rx="6.1" ry="5.7"/>
	
		<ellipse transform="matrix(0.7071 -0.7071 0.7071 0.7071 -22.1063 18.9292)" fill="#555555" cx="11.8" cy="36.2" rx="5.8" ry="5.4"/>
	<g>
		<path fill="#FFFFFF" d="M48.1,0.6c0,0-6.9,11.5-20.8,23.4c-5.7,4.8-10.1,7-14.2,10.7C7,40.2,2.4,46.4,2.4,46.4
			c2.9-4.9,0.2-8.5,3.4-13.3c3.3-4.7,5.6-2.4,9.1-6.8c3.6-4.3,1.8-4.9,5.8-9c4.1-4,4.9-1.9,9.3-5.4c2.3-1.8,0-4.8,4.7-8.1
			C39.4,0.6,41.5,4.2,48.1,0.6z"/>
		<path fill="#555555" d="M2.3,46.9c-0.1,0-0.2,0-0.3-0.1c-0.2-0.2-0.3-0.5-0.2-0.7c1.3-2.3,1.4-4.2,1.5-6.2
			c0.1-2.2,0.2-4.5,1.9-7.1c1.8-2.6,3.4-3.2,4.9-3.8c1.4-0.5,2.7-1,4.3-3c1.7-2,2.2-3.1,2.6-4.2c0.5-1.3,1-2.5,3.2-4.8
			c2.3-2.2,3.6-2.6,5-3.1c1.2-0.4,2.4-0.8,4.4-2.3c0.8-0.6,0.9-1.4,1.1-2.4c0.3-1.6,0.6-3.6,3.6-5.7c2-1.3,3.5-1.6,5.3-1.6
			c0.3,0,0.6,0,0.9,0c1.9,0,4,0.1,7.4-1.7c0.2-0.1,0.5-0.1,0.7,0.1c0.2,0.2,0.2,0.5,0.1,0.7c-0.1,0.1-7.1,11.7-21,23.5
			c-2.9,2.5-5.5,4.2-7.8,5.8c-2.3,1.6-4.4,3-6.4,4.9c-6,5.5-10.6,11.6-10.7,11.6C2.7,46.8,2.5,46.9,2.3,46.9z M39.6,2.8
			c-1.6,0-2.9,0.2-4.7,1.4c-2.6,1.8-2.9,3.5-3.1,5c-0.2,1.1-0.4,2.2-1.5,3.1c-2.1,1.7-3.5,2.1-4.7,2.5c-1.3,0.4-2.5,0.8-4.6,2.8
			c-2,2.1-2.5,3.2-3,4.4c-0.5,1.1-1,2.4-2.8,4.5c-1.8,2.2-3.3,2.8-4.7,3.4c-1.4,0.6-2.7,1.1-4.4,3.4c-1.6,2.3-1.6,4.4-1.7,6.5
			c0,1.1-0.1,2.2-0.3,3.4c2-2.3,5-5.8,8.6-9.1c2.1-1.9,4.2-3.4,6.5-5c2.4-1.6,4.9-3.4,7.7-5.8C37.6,14.4,44.2,5.5,46.6,1.9
			c-2.6,1-4.4,1-6.1,1C40.2,2.9,39.9,2.8,39.6,2.8z"/>
	</g>
	<path fill="#EA0A24" d="M1,1.9c0,0,0.9,0.6,2.5,1.6c0.8,0.5,1.7,1.2,2.7,2c0.5,0.4,1.1,0.8,1.7,1.3C8.4,7.3,9,7.7,9.7,8.2
		c0.6,0.5,1.3,1,1.9,1.6c0.7,0.6,1.3,1.1,2,1.7c0.7,0.6,1.4,1.2,2.1,1.8c0.7,0.6,1.4,1.3,2.2,1.9c2.9,2.7,6,5.6,9,8.6
		c1.5,1.5,3,3,4.4,4.5c1.4,1.5,2.8,3,4.1,4.5c0.7,0.7,1.3,1.5,1.9,2.2c0.6,0.7,1.2,1.4,1.8,2.1c0.6,0.7,1.2,1.4,1.7,2
		c0.5,0.7,1.1,1.3,1.6,1.9c1,1.2,1.9,2.4,2.7,3.4c0.8,1,1.5,2,2,2.7c1.1,1.5,1.7,2.4,1.7,2.4c0,0,0,0.1,0,0.1c0,0-0.1,0-0.1,0
		c0,0-0.9-0.6-2.4-1.7c-0.8-0.5-1.7-1.2-2.7-2c-1-0.8-2.2-1.7-3.4-2.7c-0.6-0.5-1.3-1-1.9-1.6c-0.7-0.5-1.3-1.1-2-1.7
		c-0.7-0.6-1.4-1.2-2.1-1.8c-0.7-0.6-1.5-1.3-2.2-1.9c-1.5-1.3-3-2.7-4.5-4.1c-1.5-1.4-3-2.9-4.5-4.4c-3-3-5.9-6-8.6-9
		c-0.7-0.7-1.3-1.5-1.9-2.2c-0.6-0.7-1.2-1.4-1.8-2.1c-0.6-0.7-1.2-1.4-1.7-2c-0.5-0.7-1.1-1.3-1.6-1.9c-0.5-0.6-1-1.2-1.4-1.8
		C5.3,8.4,4.9,7.8,4.5,7.3c-0.8-1-1.4-2-2-2.7C1.4,3,0.9,2.1,0.9,2.1c0,0,0-0.1,0-0.1C0.9,1.9,1,1.9,1,1.9z"/>
</g>
</svg>
